<?xml version="1.0" standalone="no"?>
<!DOCTYPE svg PUBLIC "-//W3C//DTD SVG 20010904//EN"
 "http://www.w3.org/TR/2001/REC-SVG-20010904/DTD/svg10.dtd">
<svg version="1.0" xmlns="http://www.w3.org/2000/svg"
 width="1500.000000pt" height="1500.000000pt" viewBox="0 0 1500.000000 1500.000000"
 preserveAspectRatio="xMidYMid meet">
<metadata>
Created by potrace 1.14, written by Peter Selinger 2001-2017
</metadata>
<g transform="translate(0.000000,1500.000000) scale(0.100000,-0.100000)"
fill="#000000" stroke="none">
<path d="M5999 10478 c-1 -13 -1 -27 0 -32 3 -13 3 -132 1 -214 -1 -40 0 -75
3 -78 3 -3 1 -19 -3 -35 -5 -17 -5 -31 1 -35 5 -3 7 -9 4 -15 -3 -5 -6 -77 -5
-161 2 -245 0 -330 -6 -339 -3 -5 -1 -17 5 -27 19 -36 -2 -48 -74 -42 -36 3
-71 3 -77 -1 -6 -4 -21 -4 -34 0 -13 3 -201 5 -417 3 l-394 -2 -1 -41 c-1 -22
-4 -45 -7 -49 -3 -5 -1 -11 5 -15 6 -4 8 -11 4 -16 -3 -5 -5 -47 -4 -92 0 -45
1 -91 0 -102 0 -99 2 -180 6 -186 2 -4 0 -10 -6 -14 -6 -4 -8 -10 -6 -14 6 -9
7 -42 7 -161 0 -47 0 -93 0 -102 0 -10 -1 -61 -1 -113 l-2 -95 -186 -1 c-103
-1 -191 -1 -196 0 -4 1 -132 2 -285 1 -249 0 -681 1 -706 2 -5 0 -111 0 -235
-1 -124 0 -232 0 -240 0 -8 1 -116 1 -240 0 -124 0 -232 0 -240 1 -8 0 -44 -1
-80 -2 -36 -1 -69 -1 -75 0 -5 1 -126 2 -267 1 l-258 -1 10 -25 c5 -14 5 -27
0 -30 -5 -3 -5 -18 -2 -33 4 -15 6 -40 5 -57 -2 -16 -3 -56 -3 -87 0 -32 0
-66 0 -75 0 -10 0 -27 0 -38 1 -11 1 -27 1 -35 -3 -69 -2 -121 4 -130 3 -5 2
-10 -4 -10 -5 0 -7 -12 -4 -27 2 -16 5 -44 4 -63 0 -19 0 -63 0 -97 0 -35 -1
-71 -1 -80 0 -10 0 -27 0 -38 1 -11 1 -27 0 -35 -1 -39 -1 -46 0 -55 1 -6 2
-27 1 -47 l-1 -38 -1000 0 -1000 0 0 -998 c0 -943 1 -999 18 -1000 9 0 118 -1
242 -1 124 1 231 1 238 0 6 0 23 -1 37 -1 14 0 32 0 40 0 8 0 26 0 40 0 14 0
33 1 43 1 9 0 90 0 179 0 149 0 162 -2 161 -18 0 -10 0 -43 1 -73 0 -30 1 -63
1 -72 0 -10 0 -26 0 -35 0 -10 0 -42 0 -71 0 -30 2 -58 6 -63 3 -5 0 -9 -7 -9
-9 0 -9 -3 0 -14 8 -9 8 -16 2 -20 -5 -4 -6 -18 -2 -34 4 -15 5 -38 1 -52 -3
-13 -3 -46 0 -72 4 -28 2 -48 -3 -48 -5 0 -4 -6 2 -14 8 -9 8 -16 2 -20 -5 -4
-6 -18 -2 -34 4 -15 5 -38 1 -52 -3 -13 -3 -46 0 -72 4 -28 2 -48 -3 -48 -5 0
-4 -6 2 -14 8 -9 8 -16 2 -20 -5 -4 -6 -18 -2 -34 4 -15 5 -38 1 -52 -3 -14
-4 -33 -2 -42 4 -17 346 -18 7003 -18 l6999 0 0 1000 0 1000 -495 0 c-273 0
-500 2 -505 5 -6 4 -7 13 -1 22 5 9 5 28 1 43 -4 15 -4 33 0 40 4 7 5 24 1 39
-6 24 -6 41 -1 66 4 25 2 104 -4 114 -4 6 -2 11 4 11 6 0 8 5 5 11 -4 6 -7 32
-6 57 0 26 1 71 1 100 0 28 0 60 0 70 0 26 -1 64 -4 87 -1 11 0 24 2 29 7 14
5 103 -2 115 -4 6 -2 11 4 11 6 0 8 5 5 11 -7 10 -10 93 -5 114 1 6 2 20 1 33
l-1 22 -499 0 -499 0 -4 29 c-2 16 -1 37 2 47 4 10 4 30 0 44 -3 14 -3 41 0
62 4 20 4 42 -1 49 -4 7 -3 23 1 35 5 13 5 26 1 28 -5 3 -5 23 -1 45 4 22 4
45 -1 52 -4 7 -4 22 1 33 10 27 10 31 1 63 -5 16 -5 37 -1 48 4 11 4 34 -1 52
-4 18 -4 33 0 33 3 0 6 23 6 50 0 28 -4 50 -9 50 -6 0 -6 4 0 10 6 6 8 33 4
66 -3 30 -4 57 -1 59 3 1 5 35 3 74 l-4 71 -756 1 c-416 0 -764 1 -772 1 -191
3 -469 -5 -472 -14 -2 -6 -1 -35 2 -64 3 -30 4 -56 2 -59 -6 -6 -4 -224 3
-235 3 -6 3 -10 -2 -10 -4 0 -8 -22 -8 -50 0 -27 4 -50 10 -50 5 0 5 -4 -1
-10 -6 -6 -8 -33 -4 -65 3 -31 4 -57 2 -60 -6 -6 -4 -224 3 -235 3 -6 2 -10
-4 -10 -6 0 -7 -8 -3 -19 4 -11 5 -43 4 -71 l-4 -50 -499 0 -499 1 -1 27 c-1
15 -1 36 0 47 1 11 1 30 1 43 0 12 0 28 -1 35 0 6 1 37 2 68 1 31 -1 61 -5 68
-4 6 -3 11 3 11 6 0 7 11 3 28 -4 15 -6 41 -5 57 3 27 3 41 2 88 0 6 1 37 2
68 1 31 -1 61 -5 68 -4 6 -3 11 3 11 6 0 7 11 3 28 -4 15 -6 41 -5 57 3 27 3
42 2 88 0 6 1 38 2 70 1 31 -1 60 -4 64 -4 3 -2 14 3 24 7 12 7 20 0 24 -6 4
-8 11 -4 16 3 6 -76 9 -213 9 -120 0 -323 0 -451 0 -128 0 -237 -2 -243 -5 -5
-4 -9 -2 -9 2 0 5 -18 7 -40 5 l-40 -4 -1 83 c-1 46 0 88 1 94 2 11 2 6 1 140
0 55 0 107 0 115 2 137 0 563 -4 566 -2 3 -68 4 -122 4 -49 -1 -101 -1 -112
-1 -16 1 -39 1 -78 1 -16 0 -178 1 -360 2 -287 3 -330 5 -327 18 7 28 7 90 1
90 -4 0 -3 15 0 33 4 17 4 47 0 65 -4 17 -3 34 2 37 4 3 4 17 -1 30 -6 15 -6
27 0 30 5 3 6 15 1 27 -4 12 -5 38 -1 59 4 21 4 43 -1 50 -4 7 -4 20 1 29 5 9
5 22 0 30 -5 8 -5 21 0 30 5 9 5 22 0 30 -4 7 -4 24 0 36 6 14 5 26 0 29 -5 3
-5 18 0 35 5 17 5 30 0 30 -5 0 -5 13 0 30 5 17 5 30 0 30 -5 0 -5 13 0 30 5
17 5 30 1 30 -5 0 -5 15 -2 33 4 17 4 47 0 65 -4 17 -3 32 1 32 5 0 5 12 1 28
l-7 27 -997 3 -997 2 -1 -22z"/>
</g>
</svg>
